<svg width="80" height="80" viewBox="0 0 80 80" fill="none" xmlns="http://www.w3.org/2000/svg">
<path d="M34.5284 56.4158C35.247 56.4158 35.9585 56.2743 36.6224 55.9993C37.2863 55.7243 37.8896 55.3212 38.3977 54.8131C38.9058 54.305 39.3089 53.7017 39.5839 53.0378C39.8589 52.374 40.0004 51.6624 40.0004 50.9438V45.4718H34.5284C33.8098 45.4718 33.0982 45.6133 32.4344 45.8883C31.7705 46.1633 31.1672 46.5664 30.6591 47.0745C30.151 47.5826 29.7479 48.1859 29.4729 48.8498C29.1979 49.5137 29.0564 50.2252 29.0564 50.9438C29.0564 51.6624 29.1979 52.374 29.4729 53.0378C29.7479 53.7017 30.151 54.305 30.6591 54.8131C31.1672 55.3212 31.7705 55.7243 32.4344 55.9993C33.0982 56.2743 33.8098 56.4158 34.5284 56.4158V56.4158Z" fill="#0ACF83"/>
<path d="M29.0564 40.0002C29.0564 38.5489 29.6329 37.1571 30.6591 36.1309C31.6853 35.1047 33.0771 34.5282 34.5284 34.5282H40.0004V45.4722H34.5284C33.0771 45.4722 31.6853 44.8957 30.6591 43.8695C29.6329 42.8433 29.0564 41.4515 29.0564 40.0002V40.0002Z" fill="#A259FF"/>
<path d="M29.0564 29.056C29.0564 27.6047 29.6329 26.2129 30.6591 25.1867C31.6853 24.1605 33.0771 23.584 34.5284 23.584H40.0004V34.528H34.5284C33.0771 34.528 31.6853 33.9515 30.6591 32.9253C29.6329 31.8991 29.0564 30.5072 29.0564 29.056V29.056Z" fill="#F24E1E"/>
<path d="M40 23.616H45.472C46.9233 23.616 48.3151 24.1925 49.3413 25.2187C50.3675 26.2449 50.944 27.6367 50.944 29.088C50.944 30.5392 50.3675 31.9311 49.3413 32.9573C48.3151 33.9835 46.9233 34.56 45.472 34.56H40V23.616Z" fill="#FF7262"/>
<path d="M50.944 40.0002C50.944 41.0825 50.6231 42.1404 50.0218 43.0403C49.4205 43.9401 48.5659 44.6415 47.566 45.0557C46.5662 45.4698 45.4659 45.5782 44.4045 45.3671C43.343 45.1559 42.368 44.6348 41.6027 43.8695C40.8374 43.1042 40.3163 42.1292 40.1051 41.0677C39.894 40.0063 40.0024 38.906 40.4165 37.9062C40.8307 36.9063 41.5321 36.0517 42.4319 35.4504C43.3318 34.8491 44.3897 34.5282 45.472 34.5282C46.9233 34.5282 48.3151 35.1047 49.3413 36.1309C50.3675 37.1571 50.944 38.5489 50.944 40.0002Z" fill="#1ABCFE"/>
</svg>
