<svg width="24" height="24" viewBox="0 0 24 24" fill="none" xmlns="http://www.w3.org/2000/svg">
<g clip-path="url(#clip0_114_248)">
<path fill-rule="evenodd" clip-rule="evenodd" d="M0.386368 5.67188C0.190531 5.67188 0.0472028 5.85647 0.0957201 6.0462L4.62884 23.7734C4.6628 23.9062 4.78243 23.9991 4.91949 23.9991H8.09239C8.22968 23.9991 8.34945 23.9059 8.38319 23.7728L9.09799 20.9536C9.13173 20.8205 9.2515 20.7273 9.38879 20.7273H12.9205C13.0574 20.7273 13.1769 20.82 13.211 20.9526L13.9363 23.7738C13.9704 23.9064 14.0899 23.9991 14.2268 23.9991H17.3897C17.5257 23.9991 17.6447 23.9076 17.6797 23.7762L23.8998 0.377072C23.9504 0.186672 23.8068 0 23.6098 0H20.9569C20.8214 0 20.7027 0.0908237 20.6673 0.221613L16.099 17.0981C16.0184 17.3958 15.5949 17.3927 15.5187 17.0938L12.6641 5.89776C12.6302 5.76487 12.5105 5.67188 12.3734 5.67188H9.92038C9.78324 5.67188 9.66356 5.76487 9.62968 5.89776L6.78379 17.0597C6.707 17.3609 6.27918 17.3609 6.20239 17.0597L3.3565 5.89776C3.32262 5.76487 3.20294 5.67188 3.0658 5.67188H0.386368ZM11.9248 17.4545C12.1208 17.4545 12.2642 17.2696 12.2154 17.0798L11.433 14.0361C11.3556 13.7352 10.928 13.7359 10.8516 14.0371L10.0799 17.0808C10.0318 17.2704 10.1751 17.4545 10.3707 17.4545H11.9248Z" fill="#397FB0"/>
</g>
<defs>
<clipPath id="clip0_114_248">
<rect width="24" height="24" fill="white"/>
</clipPath>
</defs>
</svg>
