<svg width="28" height="28" viewBox="0 0 28 28" fill="none" xmlns="http://www.w3.org/2000/svg">
<g clip-path="url(#clip0_114_242)">
<mask id="mask0_114_242" style="mask-type:luminance" maskUnits="userSpaceOnUse" x="0" y="0" width="28" height="28">
<path d="M28 0H0V28H28V0Z" fill="white"/>
<path fill-rule="evenodd" clip-rule="evenodd" d="M2 7.67188L6.68655 25.9991H10.3258L11.1554 22.7273H15.1531L15.9942 25.9991H19.6204L26 2H22.7273L17.8007 20.1999L14.6065 7.67188H11.6873L8.49309 20.1999L5.29891 7.67188H2ZM14.3117 19.4545L13.1404 14.8981L11.9851 19.4545H14.3117Z" fill="black"/>
</mask>
<g mask="url(#mask0_114_242)">
<path d="M6.68656 25.9991L5.23332 26.3708C5.40309 27.0347 6.00126 27.4991 6.68656 27.4991V25.9991ZM2.00001 7.67188V6.17188C1.53669 6.17188 1.09938 6.38598 0.81523 6.75194C0.531081 7.11789 0.431991 7.59461 0.546774 8.04349L2.00001 7.67188ZM10.3258 25.9991V27.4991C11.0123 27.4991 11.6111 27.0332 11.7798 26.3678L10.3258 25.9991ZM11.1554 22.7273V21.2273C10.4689 21.2273 9.87008 21.6932 9.70138 22.3586L11.1554 22.7273ZM15.1531 22.7273L16.6058 22.3538C16.4354 21.6908 15.8377 21.2273 15.1531 21.2273V22.7273ZM15.9942 25.9991L14.5414 26.3726C14.7119 27.0356 15.3096 27.4991 15.9942 27.4991V25.9991ZM19.6204 25.9991V27.4991C20.3004 27.4991 20.8953 27.0417 21.07 26.3845L19.6204 25.9991ZM26 2L27.4497 2.38536C27.5693 1.93518 27.4731 1.45495 27.1891 1.08568C26.9052 0.716407 26.4658 0.5 26 0.5V2ZM22.7273 2V0.5C22.0498 0.5 21.4564 0.95412 21.2794 1.60807L22.7273 2ZM17.8007 20.1999L16.3472 20.5705C16.5156 21.2309 17.1081 21.6948 17.7897 21.6998C18.4713 21.7048 19.0705 21.2497 19.2486 20.5918L17.8007 20.1999ZM14.6065 7.67188L16.06 7.30129C15.8906 6.63685 15.2922 6.17188 14.6065 6.17188V7.67188ZM11.6873 7.67188V6.17188C11.0016 6.17188 10.4032 6.63685 10.2338 7.30129L11.6873 7.67188ZM8.4931 20.1999L7.0396 20.5705C7.20901 21.2349 7.80741 21.6999 8.4931 21.6999C9.17879 21.6999 9.77719 21.2349 9.9466 20.5705L8.4931 20.1999ZM5.29892 7.67188L6.75242 7.30129C6.58301 6.63685 5.98461 6.17188 5.29892 6.17188V7.67188ZM14.3117 19.4545V20.9545C14.7754 20.9545 15.213 20.7401 15.4971 20.3737C15.7812 20.0073 15.8799 19.5301 15.7645 19.0811L14.3117 19.4545ZM13.1404 14.8981L14.5931 14.5246C14.4224 13.8607 13.8234 13.3969 13.1379 13.3981C12.4524 13.3992 11.8548 13.8649 11.6864 14.5294L13.1404 14.8981ZM11.9851 19.4545L10.5311 19.0859C10.4174 19.5345 10.5171 20.0105 10.8013 20.3757C11.0855 20.7409 11.5223 20.9545 11.9851 20.9545V19.4545ZM8.13979 25.6275L3.45325 7.30026L0.546774 8.04349L5.23332 26.3708L8.13979 25.6275ZM10.3258 24.4991H6.68656V27.4991H10.3258V24.4991ZM9.70138 22.3586L8.87183 25.6305L11.7798 26.3678L12.6094 23.0959L9.70138 22.3586ZM15.1531 21.2273H11.1554V24.2273H15.1531V21.2273ZM17.4469 25.6257L16.6058 22.3538L13.7003 23.1007L14.5414 26.3726L17.4469 25.6257ZM19.6204 24.4991H15.9942V27.4991H19.6204V24.4991ZM24.5503 1.61464L18.1707 25.6138L21.07 26.3845L27.4497 2.38536L24.5503 1.61464ZM22.7273 3.5H26V0.5H22.7273V3.5ZM19.2486 20.5918L24.1752 2.39193L21.2794 1.60807L16.3528 19.8079L19.2486 20.5918ZM13.153 8.04246L16.3472 20.5705L19.2542 19.8293L16.06 7.30129L13.153 8.04246ZM11.6873 9.17188H14.6065V6.17188H11.6873V9.17188ZM9.9466 20.5705L13.1408 8.04246L10.2338 7.30129L7.0396 19.8293L9.9466 20.5705ZM3.84542 8.04246L7.0396 20.5705L9.9466 19.8293L6.75242 7.30129L3.84542 8.04246ZM2.00001 9.17188H5.29892V6.17188H2.00001V9.17188ZM15.7645 19.0811L14.5931 14.5246L11.6876 15.2715L12.859 19.828L15.7645 19.0811ZM11.6864 14.5294L10.5311 19.0859L13.4391 19.8232L14.5944 15.2667L11.6864 14.5294ZM11.9851 20.9545H14.3117V17.9545H11.9851V20.9545Z" fill="#397FB0"/>
</g>
</g>
<defs>
<clipPath id="clip0_114_242">
<rect width="28" height="28" fill="white"/>
</clipPath>
</defs>
</svg>
